<svg width="799.9999999999999" height="600" xmlns="http://www.w3.org/2000/svg">

 <g>
  <title>Layer 1</title>
  <g stroke="null">
   <path stroke="null" fill="#FFC35E" clip-rule="evenodd" fill-rule="evenodd" d="m233.10692,104.02172c-16.62,0 -30.09038,13.47631 -30.09038,30.09631l0,319.35663c0,16.62593 13.47038,30.09631 30.09038,30.09631l271.50741,0c16.61407,0 30.09631,-13.47038 30.09631,-30.09631l0,-228.98465l-112.11677,-120.46829l-189.48695,0z"/>
   <path stroke="null" fill="#ffffff" d="m306.32507,423.7461l-37.05987,0c-3.5233,0 -6.41193,-2.88863 -6.41193,-6.41193l0,-58.41911c0,-3.52923 2.8827,-6.41193 6.41193,-6.41193l37.05987,0c2.13533,0 3.8436,1.70827 3.8436,4.06306c0,2.1294 -1.70827,3.83767 -3.8436,3.83767l-34.5983,0l0,22.96075l33.85687,0c2.13533,0 3.8436,1.70827 3.8436,4.06306c0,2.13533 -1.70827,3.8436 -3.8436,3.8436l-33.85687,0l0,24.56224l34.5983,0c2.13533,0 3.8436,1.70827 3.8436,3.8436c0,2.3548 -1.70827,4.06899 -3.8436,4.06899zm48.57286,-28.30501l-19.75775,0l0,24.56224c0,2.45563 -1.9218,4.37743 -4.4842,4.37743c-2.45563,0 -4.37743,-1.9218 -4.37743,-4.37743l0,-61.08828c0,-3.52923 2.8827,-6.41193 6.41193,-6.41193l22.21338,0c14.31265,0 22.32015,9.82846 22.32015,21.46601c-0.00593,11.64349 -8.22696,21.47195 -22.32608,21.47195zm-1.06767,-35.0313l-18.69008,0l0,27.12464l18.69008,0c8.43456,0 14.20589,-5.55186 14.20589,-13.56529c0,-8.00749 -5.77133,-13.55936 -14.20589,-13.55936zm60.85102,64.61157c-10.56989,0 -18.90362,-3.5233 -24.98931,-8.86756c-0.9609,-0.85413 -1.38797,-2.02856 -1.38797,-3.203c0,-2.14126 1.6015,-4.49013 4.1639,-4.49013c0.85413,0 1.81503,0.21353 2.5624,0.85413c4.91719,4.38336 11.75026,7.79396 19.97128,7.79396c12.71115,0 16.76828,-6.83306 16.76828,-12.28409c0,-18.36978 -42.18466,-8.22103 -42.18466,-33.64334c0,-11.74432 10.46312,-19.75775 24.45548,-19.75775c9.18193,0 17.08858,2.77593 22.85398,7.58636c0.9609,0.85413 1.49473,2.02856 1.49473,3.203c0,2.13533 -1.81503,4.27066 -4.1639,4.27066c-0.85413,0 -1.81503,-0.3203 -2.5624,-0.9609c-5.23156,-4.27066 -11.74432,-6.19246 -18.26302,-6.19246c-8.54133,0 -14.63295,4.59096 -14.63295,11.32319c0,16.02092 42.18466,6.83306 42.18466,33.4298c0.00593,10.36822 -7.04659,20.93811 -26.27051,20.93811z"/>
   <g stroke="null" clip-rule="evenodd" fill-rule="evenodd">
    <path stroke="null" fill="#FFB446" d="m534.98349,224.71541l0,5.93148l-75.91697,0c-14.46094,0 -37.43948,-7.47366 -36.34809,-39.78241c0,0 1.23375,33.85094 35.60665,33.85094l76.6584,0z"/>
    <path stroke="null" fill="#ffffff" opacity="0.5" d="m422.86079,104.00393l0,86.36823c0,9.82253 6.54835,34.34918 36.20573,34.34918l75.91697,0l-112.1227,-120.71741z"/>
   </g>
  </g>
  <rect id="svg_4" height="101.24999" width="233.74997" y="337.49991" x="248.49993" stroke-width="0" stroke="null" fill="#FFC35E"/>
  <text font-style="normal" font-weight="normal" xml:space="preserve" text-anchor="start" font-family="sans-serif" font-size="120" id="svg_7" y="414.9999" x="300.99993" stroke-width="0" stroke="null" fill="#ffffff">{ }</text>
 </g>
</svg>