<?xml version="1.0" encoding="UTF-8"?>
<!DOCTYPE svg PUBLIC "-//W3C//DTD SVG 1.1//EN" "http://www.w3.org/Graphics/SVG/1.1/DTD/svg11.dtd">
<svg xmlns="http://www.w3.org/2000/svg" version="1.1" width="1080px" height="1080px" style="shape-rendering:geometricPrecision; text-rendering:geometricPrecision; image-rendering:optimizeQuality; fill-rule:evenodd; clip-rule:evenodd" xmlns:xlink="http://www.w3.org/1999/xlink">
<g><path style="opacity:0.008" fill="#000000" d="M 18.5,-0.5 C 19.1667,-0.5 19.8333,-0.5 20.5,-0.5C 19.8333,0.833333 19.1667,0.833333 18.5,-0.5 Z"/></g>
<g><path style="opacity:0.104" fill="#1e1e1e" d="M 24.5,-0.5 C 62.1667,-0.5 99.8333,-0.5 137.5,-0.5C 138.167,6.16667 138.833,6.16667 139.5,-0.5C 142.167,-0.5 144.833,-0.5 147.5,-0.5C 145.991,2.51065 143.991,5.17731 141.5,7.5C 138.167,7.5 134.833,7.5 131.5,7.5C 130.653,6.03374 129.32,5.20041 127.5,5C 93.8697,2.96234 60.2031,1.96234 26.5,2C 25.6195,1.2917 24.9528,0.458367 24.5,-0.5 Z"/></g>
<g><path style="opacity:0.628" fill="#a1a1a1" d="M 307.5,-0.5 C 386.833,-0.5 466.167,-0.5 545.5,-0.5C 545.5,0.5 545.5,1.5 545.5,2.5C 489.833,2.34027 434.166,2.00694 378.5,1.5C 354.49,1.49976 330.824,0.833095 307.5,-0.5 Z"/></g>
<g><path style="opacity:0.479" fill="#7b7b7b" d="M 545.5,-0.5 C 568.5,-0.5 591.5,-0.5 614.5,-0.5C 619.067,1.28507 624.067,2.1184 629.5,2C 651.337,2.16803 673.004,2.66803 694.5,3.5C 644.833,3.15778 595.167,2.82445 545.5,2.5C 545.5,1.5 545.5,0.5 545.5,-0.5 Z"/></g>
<g><path style="opacity:0.337" fill="#525252" d="M 614.5,-0.5 C 639.167,-0.5 663.833,-0.5 688.5,-0.5C 688.611,0.117425 688.944,0.617425 689.5,1C 693.392,1.41878 697.058,2.25212 700.5,3.5C 698.5,3.5 696.5,3.5 694.5,3.5C 673.004,2.66803 651.337,2.16803 629.5,2C 624.067,2.1184 619.067,1.28507 614.5,-0.5 Z"/></g>
<g><path style="opacity:0.174" fill="#2e2e2e" d="M 688.5,-0.5 C 691.5,-0.5 694.5,-0.5 697.5,-0.5C 697.611,0.117425 697.944,0.617425 698.5,1C 700.5,1.33333 702.5,1.66667 704.5,2C 706.635,3.55574 706.968,5.38907 705.5,7.5C 704.167,7.5 702.833,7.5 701.5,7.5C 701.768,5.90097 701.434,4.56764 700.5,3.5C 697.058,2.25212 693.392,1.41878 689.5,1C 688.944,0.617425 688.611,0.117425 688.5,-0.5 Z"/></g>
<g><path style="opacity:0.482" fill="#6e6e6e" d="M 147.5,-0.5 C 150.167,-0.5 152.833,-0.5 155.5,-0.5C 152.909,2.15148 150.243,4.81814 147.5,7.5C 145.5,7.5 143.5,7.5 141.5,7.5C 143.991,5.17731 145.991,2.51065 147.5,-0.5 Z"/></g>
<g><path style="opacity:0.839" fill="#d0d0d0" d="M 619.5,4.5 C 646.095,5.32438 672.761,5.82438 699.5,6C 700.056,6.38258 700.389,6.88258 700.5,7.5C 699.833,7.5 699.5,7.83333 699.5,8.5C 698.833,8.5 698.167,8.5 697.5,8.5C 667.671,7.5019 637.671,7.16857 607.5,7.5C 554.668,6.6672 501.668,6.1672 448.5,6C 447.056,4.93628 445.389,4.43628 443.5,4.5C 353.864,4.36476 264.197,4.53143 174.5,5C 167.488,6.13072 160.488,6.96405 153.5,7.5C 152.167,7.5 150.833,7.5 149.5,7.5C 149.953,6.54163 150.619,5.7083 151.5,5C 169.306,3.37459 187.139,2.20792 205,1.5C 342.555,3.48877 480.721,4.48877 619.5,4.5 Z"/></g>
<g><path style="opacity:0.743" fill="#b9b9b9" d="M 155.5,-0.5 C 206.167,-0.5 256.833,-0.5 307.5,-0.5C 330.824,0.833095 354.49,1.49976 378.5,1.5C 434.166,2.00694 489.833,2.34027 545.5,2.5C 570.167,3.16667 594.833,3.83333 619.5,4.5C 480.721,4.48877 342.555,3.48877 205,1.5C 187.139,2.20792 169.306,3.37459 151.5,5C 150.619,5.7083 149.953,6.54163 149.5,7.5C 148.833,7.5 148.167,7.5 147.5,7.5C 150.243,4.81814 152.909,2.15148 155.5,-0.5 Z"/></g>
<g><path style="opacity:0.675" fill="#a2a2a2" d="M 545.5,2.5 C 595.167,2.82445 644.833,3.15778 694.5,3.5C 696.5,3.5 698.5,3.5 700.5,3.5C 701.434,4.56764 701.768,5.90097 701.5,7.5C 701.167,7.5 700.833,7.5 700.5,7.5C 700.389,6.88258 700.056,6.38258 699.5,6C 672.761,5.82438 646.095,5.32438 619.5,4.5C 594.833,3.83333 570.167,3.16667 545.5,2.5 Z"/></g>
<g><path style="opacity:0.984" fill="#e7e7e7" d="M 607.5,7.5 C 456.167,7.5 304.833,7.5 153.5,7.5C 160.488,6.96405 167.488,6.13072 174.5,5C 264.197,4.53143 353.864,4.36476 443.5,4.5C 445.389,4.43628 447.056,4.93628 448.5,6C 501.668,6.1672 554.668,6.6672 607.5,7.5 Z"/></g>
<g><path style="opacity:0.521" fill="#fcfcfc" d="M 131.5,7.5 C 134.833,7.5 138.167,7.5 141.5,7.5C 143.5,7.5 145.5,7.5 147.5,7.5C 148.167,7.5 148.833,7.5 149.5,7.5C 150.833,7.5 152.167,7.5 153.5,7.5C 304.833,7.5 456.167,7.5 607.5,7.5C 637.671,7.16857 667.671,7.5019 697.5,8.5C 518.5,8.33333 339.5,8.5 160.5,9C 124.627,14.5371 100.46,34.3705 88,68.5C 85.4235,76.2926 84.2568,84.2926 84.5,92.5C 83.5005,198.332 83.1672,304.332 83.5,410.5C 82.3341,300.667 82.1674,190.667 83,80.5C 84.8889,69.165 88.5556,58.4984 94,48.5C 103.825,33.2529 116.492,20.9196 132,11.5C 132.579,10.0715 132.412,8.7382 131.5,7.5 Z"/></g>
<g><path style="opacity:0.156" fill="#f1f1f1" d="M 700.5,7.5 C 700.833,7.5 701.167,7.5 701.5,7.5C 702.833,7.5 704.167,7.5 705.5,7.5C 706.15,11.1397 707.65,14.473 710,17.5C 711.579,19.0412 713.413,20.2078 715.5,21C 721.914,28.1495 728.748,34.9829 736,41.5C 741.539,49.0483 747.873,56.0483 755,62.5C 756,64.1667 757,65.8333 758,67.5C 769.418,78.5825 780.418,89.9158 791,101.5C 804.86,119.367 820.194,136.034 837,151.5C 856.604,173.441 876.604,195.108 897,216.5C 897.667,217.833 898.333,219.167 899,220.5C 916.597,237.103 933.264,254.769 949,273.5C 959.067,282.898 968.4,292.898 977,303.5C 985.664,313.164 994.664,322.497 1004,331.5C 1005.88,335.388 1008.55,338.721 1012,341.5C 1012.79,342.745 1013.29,344.078 1013.5,345.5C 928.828,255.494 844.494,165.161 760.5,74.5C 742.824,55.7915 725.158,37.1248 707.5,18.5C 705.183,14.8536 702.516,11.5203 699.5,8.5C 699.5,7.83333 699.833,7.5 700.5,7.5 Z"/></g>
<g><path style="opacity:0.586" fill="#17130e" d="M 697.5,8.5 C 698.167,8.5 698.833,8.5 699.5,8.5C 702.516,11.5203 705.183,14.8536 707.5,18.5C 707.5,19.1667 707.167,19.5 706.5,19.5C 704.833,18.5 703.5,17.1667 702.5,15.5C 702.44,14.9569 702.107,14.6236 701.5,14.5C 700.5,41.4918 700.167,68.4918 700.5,95.5C 700.333,150.168 700.5,204.834 701,259.5C 704.523,287.389 717.023,310.223 738.5,328C 752.355,337.563 767.689,343.063 784.5,344.5C 858.999,345.666 933.666,345.832 1008.5,345C 1007.96,344.283 1007.29,343.783 1006.5,343.5C 923.466,254.467 840.799,165.134 758.5,75.5C 759.167,75.1667 759.833,74.8333 760.5,74.5C 844.494,165.161 928.828,255.494 1013.5,345.5C 1013.5,346.5 1013.5,347.5 1013.5,348.5C 1012.52,559.494 1012.18,770.494 1012.5,981.5C 1011.43,985.844 1011.43,990.177 1012.5,994.5C 1011.23,997.705 1010.57,1001.04 1010.5,1004.5C 1003.74,1028.59 989.742,1047.26 968.5,1060.5C 968.158,1061.34 967.492,1061.67 966.5,1061.5C 959.744,1063.86 953.077,1066.2 946.5,1068.5C 941.289,1069.82 935.956,1070.48 930.5,1070.5C 673.5,1070.67 416.5,1070.5 159.5,1070C 115.361,1061.56 90.3612,1035.06 84.5,990.5C 85.16,896.695 85.16,802.695 84.5,708.5C 84.5,503.167 84.5,297.833 84.5,92.5C 84.2568,84.2926 85.4235,76.2926 88,68.5C 100.46,34.3705 124.627,14.5371 160.5,9C 339.5,8.5 518.5,8.33333 697.5,8.5 Z"/></g>
<g><path style="opacity:0.999" fill="#fec25e" d="M 158.5,11.5 C 338.167,11.5 517.833,11.5 697.5,11.5C 697.333,98.5006 697.5,185.501 698,272.5C 701.744,316.233 724.244,345.399 765.5,360C 772.079,361.763 778.746,363.097 785.5,364C 860.166,364.5 934.833,364.667 1009.5,364.5C 1009.67,574.167 1009.5,783.834 1009,993.5C 1003.71,1029.45 983.88,1053.29 949.5,1065C 945.205,1065.91 940.872,1066.58 936.5,1067C 676.5,1067.67 416.5,1067.67 156.5,1067C 118.096,1058.6 95.263,1035.1 88,996.5C 87.3333,690.833 87.3333,385.167 88,79.5C 94.4789,50.3493 111.312,29.516 138.5,17C 145.208,14.8261 151.875,12.9927 158.5,11.5 Z"/></g>
<g><path style="opacity:0.996" fill="#fee0ae" d="M 702.5,15.5 C 703.5,17.1667 704.833,18.5 706.5,19.5C 723.494,38.4936 740.827,57.1603 758.5,75.5C 840.799,165.134 923.466,254.467 1006.5,343.5C 932.669,344.499 858.669,344.833 784.5,344.5C 767.689,343.063 752.355,337.563 738.5,328C 717.023,310.223 704.523,287.389 701,259.5C 700.5,204.834 700.333,150.168 700.5,95.5C 701.167,68.8333 701.833,42.1667 702.5,15.5 Z"/></g>
<g><path style="opacity:1" fill="#5c513f" d="M 702.5,15.5 C 701.833,42.1667 701.167,68.8333 700.5,95.5C 700.167,68.4918 700.5,41.4918 701.5,14.5C 702.107,14.6236 702.44,14.9569 702.5,15.5 Z"/></g>
<g><path style="opacity:0.576" fill="#1e1e1e" d="M 707.5,18.5 C 725.158,37.1248 742.824,55.7915 760.5,74.5C 759.833,74.8333 759.167,75.1667 758.5,75.5C 740.827,57.1603 723.494,38.4936 706.5,19.5C 707.167,19.5 707.5,19.1667 707.5,18.5 Z"/></g>
<g><path style="opacity:0.999" fill="#f5ad43" d="M 701.5,278.5 C 715.26,320.717 744.26,343.883 788.5,348C 862.499,348.5 936.499,348.667 1010.5,348.5C 1010.5,353.167 1010.5,357.833 1010.5,362.5C 937.833,362.667 865.166,362.5 792.5,362C 740.499,357.395 710.166,329.562 701.5,278.5 Z"/></g>
<g><path style="opacity:0.995" fill="#e0c69b" d="M 1006.5,343.5 C 1007.29,343.783 1007.96,344.283 1008.5,345C 933.666,345.832 858.999,345.666 784.5,344.5C 858.669,344.833 932.669,344.499 1006.5,343.5 Z"/></g>
<g><path style="opacity:0.174" fill="#fefefe" d="M 1013.5,348.5 C 1014.73,350.201 1015.4,352.201 1015.5,354.5C 1015.14,365.561 1014.81,376.728 1014.5,388C 1016.98,472.787 1017.98,557.62 1017.5,642.5C 1017.68,748.618 1016.85,854.618 1015,960.5C 1013.5,962.795 1013.33,965.128 1014.5,967.5C 1013.94,972.324 1013.27,976.99 1012.5,981.5C 1012.18,770.494 1012.52,559.494 1013.5,348.5 Z"/></g>
<g><path style="opacity:0.078" fill="#cdcdcd" d="M 84.5,92.5 C 84.5,297.833 84.5,503.167 84.5,708.5C 83.8052,622.496 83.1385,536.33 82.5,450C 83.2583,436.843 83.5916,423.677 83.5,410.5C 83.1672,304.332 83.5005,198.332 84.5,92.5 Z"/></g>
<g><path style="opacity:1" fill="#fffefc" d="M 408.5,701.5 C 416.5,701.5 424.5,701.5 432.5,701.5C 432.5,710.167 432.5,718.833 432.5,727.5C 425.426,727.161 418.426,727.661 411.5,729C 404.596,732.294 400.762,737.794 400,745.5C 399.667,762.5 399.333,779.5 399,796.5C 399.393,812.548 395.726,827.548 388,841.5C 381.676,848.904 374.176,854.738 365.5,859C 380.556,865.057 390.389,875.891 395,891.5C 396.798,899.755 398.132,908.089 399,916.5C 399.333,934.833 399.667,953.167 400,971.5C 400.826,976.994 402.993,981.828 406.5,986C 414.718,989.9 423.385,991.4 432.5,990.5C 432.5,998.833 432.5,1007.17 432.5,1015.5C 424.16,1015.67 415.827,1015.5 407.5,1015C 389.04,1011.21 377.873,1000.04 374,981.5C 372.015,958.214 371.015,934.881 371,911.5C 371.436,897.305 366.269,885.805 355.5,877C 349.974,873.619 343.974,872.119 337.5,872.5C 337.334,863.494 337.5,854.494 338,845.5C 353.344,844.826 363.344,837.159 368,822.5C 369.787,816.634 370.787,810.634 371,804.5C 371.333,786.167 371.667,767.833 372,749.5C 372.181,733.986 377.681,720.82 388.5,710C 394.69,705.73 401.357,702.897 408.5,701.5 Z"/></g>
<g><path style="opacity:1" fill="#fffefd" d="M 556.5,1015.5 C 551.5,1015.5 546.5,1015.5 541.5,1015.5C 541.5,1007.17 541.5,998.833 541.5,990.5C 545.702,990.817 549.702,990.483 553.5,989.5C 558.543,989.191 563.21,987.691 567.5,985C 571.667,978.865 573.834,972.032 574,964.5C 574.333,945.833 574.667,927.167 575,908.5C 575.998,885.291 586.831,868.791 607.5,859C 595,853.167 585.833,844 580,831.5C 577.439,823.351 575.773,815.018 575,806.5C 574.667,788.833 574.333,771.167 574,753.5C 574.564,744.601 571.731,737.101 565.5,731C 557.462,727.962 549.129,726.795 540.5,727.5C 540.5,718.833 540.5,710.167 540.5,701.5C 551.293,701.021 561.959,701.854 572.5,704C 592.146,712.084 601.646,726.917 601,748.5C 600.973,771.884 601.973,795.218 604,818.5C 607.609,835.613 618.109,844.613 635.5,845.5C 635.5,854.5 635.5,863.5 635.5,872.5C 620.107,872.611 609.94,879.944 605,894.5C 603.782,901.127 602.782,907.794 602,914.5C 601.667,932.833 601.333,951.167 601,969.5C 600.175,984.653 594.342,997.486 583.5,1008C 575.452,1013.63 566.452,1016.13 556.5,1015.5 Z"/></g>
<g><path style="opacity:1" fill="#ffe1b1" d="M 553.5,989.5 C 549.702,990.483 545.702,990.817 541.5,990.5C 541.5,998.833 541.5,1007.17 541.5,1015.5C 546.5,1015.5 551.5,1015.5 556.5,1015.5C 551.36,1016.49 546.026,1016.82 540.5,1016.5C 540.5,1007.5 540.5,998.5 540.5,989.5C 544.833,989.5 549.167,989.5 553.5,989.5 Z"/></g>
<g><path style="opacity:0.115" fill="#fdfdfd" d="M 84.5,990.5 C 90.3612,1035.06 115.361,1061.56 159.5,1070C 416.5,1070.5 673.5,1070.67 930.5,1070.5C 880.646,1071.18 830.646,1071.84 780.5,1072.5C 779.311,1072.24 778.144,1071.91 777,1071.5C 766.345,1072.19 755.678,1072.86 745,1073.5C 716.518,1072.84 688.018,1072.51 659.5,1072.5C 542.112,1074.69 424.778,1075.53 307.5,1075C 305.893,1076.05 305.227,1077.55 305.5,1079.5C 282.5,1079.5 259.5,1079.5 236.5,1079.5C 236.33,1078.18 236.663,1077.01 237.5,1076C 236.833,1075.67 236.167,1075.33 235.5,1075C 214.829,1074.73 194.162,1074.73 173.5,1075C 172.328,1074.58 171.328,1073.91 170.5,1073C 131.509,1071.35 103.676,1052.85 87,1017.5C 84.6019,1008.46 83.7686,999.456 84.5,990.5 Z M 252.5,1074.5 C 255.137,1076.15 254.803,1076.65 251.5,1076C 252.056,1075.62 252.389,1075.12 252.5,1074.5 Z M 265.5,1074.5 C 268.137,1076.15 267.803,1076.65 264.5,1076C 265.056,1075.62 265.389,1075.12 265.5,1074.5 Z"/></g>
<g><path style="opacity:0.103" fill="#ededed" d="M 1010.5,1004.5 C 1010.3,1010.36 1009.13,1016.02 1007,1021.5C 1004.33,1026.83 1001.67,1032.17 999,1037.5C 993.833,1042 989,1046.83 984.5,1052C 979.482,1055.54 974.148,1058.37 968.5,1060.5C 989.742,1047.26 1003.74,1028.59 1010.5,1004.5 Z"/></g>
<g><path style="opacity:0.123" fill="#e9e9e9" d="M 966.5,1061.5 C 960.933,1066.56 954.266,1068.9 946.5,1068.5C 953.077,1066.2 959.744,1063.86 966.5,1061.5 Z"/></g>
</svg>
