<?xml version="1.0"?>
<svg width="1080" height="1080" xmlns="http://www.w3.org/2000/svg" xmlns:svg="http://www.w3.org/2000/svg" version="1.1" xml:space="preserve">
 <desc>Created with Fabric.js 5.2.4</desc>

 <g class="layer">
  <title>Layer 1</title>
  <g id="a962c8fb-5933-4943-b12b-de9414a983d6" transform="matrix(1 0 0 1 540 540)">
   <rect fill="rgb(255,255,255)" fill-rule="nonzero" height="1080" id="svg_1" stroke-dashoffset="0" stroke-miterlimit="4" width="1080" x="-557" y="-532"/>
  </g>
  <g id="5c499043-8d57-4c29-95f6-3535a71e3cce" transform="matrix(1 0 0 1 540 540)"/>
  <g id="svg_2" transform="matrix(1 0 0 1 0 0) matrix(2.79 0 0 2.79 560.44 540)">
   <g id="svg_3">
    <g id="svg_5" transform="matrix(1 0 0 1 -0.14 0.01)">
     <path d="m229.11,104.02c-16.62,0 -30.09,13.48 -30.09,30.1l0,319.35c0,16.63 13.47,30.1 30.09,30.1l271.5,0c16.62,0 30.1,-13.47 30.1,-30.1l0,-228.98l-112.12,-120.47l-189.48,0z" fill="rgb(255,195,94)" fill-rule="evenodd" id="svg_6" stroke="rgb(0,0,0)" stroke-dashoffset="0" stroke-miterlimit="4" transform="translate(-368.86 -293.8)"/>
    </g>
    <g id="svg_8" transform="matrix(1 0 0 1 -17.1 94.44)">
     <path d="m302.33,423.75l-37.06,0c-3.53,0 -6.42,-2.89 -6.42,-6.42l0,-58.41c0,-3.53 2.89,-6.42 6.42,-6.42l37.06,0c2.13,0 3.84,1.71 3.84,4.07c0,2.13 -1.71,3.83 -3.84,3.83l-34.6,0l0,22.96l33.85,0c2.14,0 3.85,1.71 3.85,4.07c0,2.13 -1.71,3.84 -3.85,3.84l-33.85,0l0,24.56l34.6,0c2.13,0 3.84,1.71 3.84,3.85c0,2.35 -1.71,4.07 -3.84,4.07zm48.57,-28.31l-19.76,0l0,24.56c0,2.46 -1.92,4.38 -4.48,4.38c-2.46,0 -4.38,-1.92 -4.38,-4.38l0,-61.08c0,-3.53 2.88,-6.42 6.41,-6.42l22.21,0c14.32,0 22.32,9.83 22.32,21.47c0,11.64 -8.22,21.47 -22.32,21.47zm-1.07,-35.03l-18.69,0l0,27.12l18.69,0c8.43,0 14.21,-5.55 14.21,-13.56c0,-8.01 -5.78,-13.56 -14.21,-13.56zm60.85,64.61c-10.57,0 -18.9,-3.52 -24.99,-8.87c-0.96,-0.85 -1.39,-2.02 -1.39,-3.2c0,-2.14 1.61,-4.49 4.17,-4.49c0.85,0 1.81,0.21 2.56,0.85c4.92,4.39 11.75,7.8 19.97,7.8c12.71,0 16.77,-6.83 16.77,-12.29c0,-18.37 -42.18,-8.22 -42.18,-33.64c0,-11.74 10.46,-19.76 24.45,-19.76c9.18,0 17.09,2.78 22.85,7.59c0.97,0.85 1.5,2.03 1.5,3.2c0,2.14 -1.82,4.27 -4.16,4.27c-0.86,0 -1.82,-0.32 -2.57,-0.96c-5.23,-4.27 -11.74,-6.19 -18.26,-6.19c-8.54,0 -14.63,4.59 -14.63,11.32c0,16.02 42.18,6.84 42.18,33.43c0.01,10.37 -7.04,20.94 -26.27,20.94z" fill="rgb(255,255,255)" fill-rule="nonzero" id="svg_9" stroke="rgb(0,0,0)" stroke-dashoffset="0" stroke-miterlimit="4" transform="translate(-351.9 -388.22)"/>
    </g>
    <g id="svg_10" transform="matrix(1 0 0 1 109.83 -83.03)">
     <path d="m530.98,224.72l0,5.93l-75.91,0c-14.46,0 -37.44,-7.48 -36.35,-39.79c0,0 1.23,33.86 35.61,33.86l76.65,0z" fill="rgb(255,180,70)" fill-rule="evenodd" id="svg_11" stroke="rgb(0,0,0)" stroke-dashoffset="0" stroke-miterlimit="4" transform="translate(-478.83 -210.76)"/>
    </g>
    <g id="svg_12" transform="matrix(1 0 0 1 109.92 -129.42)">
     <path d="m418.86,104l0,86.37c0,9.82 6.55,34.35 36.21,34.35l75.91,0l-112.12,-120.72z" fill="rgb(255,255,255)" fill-rule="evenodd" id="svg_13" opacity="0.5" stroke="rgb(0,0,0)" stroke-dashoffset="0" stroke-miterlimit="4" transform="translate(-478.92 -164.36)"/>
    </g>
    <g id="svg_4" transform="matrix(1 0 0 1 -3.63 94.34)">
     <rect fill="rgb(255,195,94)" fill-rule="nonzero" height="101.25" id="svg_14" stroke="rgb(0,0,0)" stroke-dashoffset="0" stroke-miterlimit="4" stroke-width="0" width="233.75" x="-120.87" y="-50.62"/>
    </g>
    <g id="svg_7" transform="matrix(1 0 0 1 -11.25 83.62)">
     <text fill="rgb(255,255,255)" fill-rule="nonzero" font-family="sans-serif" font-size="120" font-style="normal" font-weight="normal" id="svg_15" stroke="rgb(0,0,0)" stroke-dashoffset="0" stroke-miterlimit="4" stroke-width="0" x="-4" xml:space="preserve">
      <tspan id="svg_16" x="-71.75" y="61.85">{ }</tspan>
     </text>
    </g>
   </g>
   <line fill="none" id="svg_17" stroke="#000000" stroke-width="5" transform="matrix(1 0 0 1 0 0)" x1="698.4" x2="693.4" y1="15.8" y2="99.8"/>
  </g>
  <line fill="none" id="svg_20" points="null" stroke="#000000" stroke-width="5" transform="matrix(1 0 0 1 0 0) matrix(0.634008 0.00258875 -0.00629328 0.988212 255.598 -1.73515)" x1="701.46" x2="702.03" y1="9.83" y2="257.79"/>
 </g>
</svg>